<svg width="1280" height="450" viewBox="0 0 680 240" xmlns="http://www.w3.org/2000/svg">
<defs>
  <style>
    .b0{fill:#08112a}.b1{fill:#0d1f45}.b2{fill:#112858}.hor{fill:#1a4a8a}
    .gnd{fill:#0d2b18}.gnd2{fill:#0a2214}.rd{fill:#1e1e1e}.rdl{fill:#d4b83a}
    .pin{fill:#e8c84a}.ph{fill:#08112a}
    .rg1{fill:none;stroke:#1a4a8a;stroke-width:22;opacity:.2}
    .rg2{fill:none;stroke:#2368c4;stroke-width:14;opacity:.28}
    .rg3{fill:none;stroke:#3d90f0;stroke-width:7;opacity:.38}
    .cl{fill:#dceeff;opacity:.88}.cl2{fill:#c4dcf5;opacity:.65}.st{fill:#b8d0f8}
    .po{fill:#f0c842;opacity:.75}.wn{fill:#d94f22}
    .wt{fill:#fff;font-family:sans-serif;font-weight:800;font-size:16px}
    .ttl{font-family:'Georgia',serif;font-size:52px;font-weight:700;fill:#f0f6ff;letter-spacing:2px}
    .sub{font-family:sans-serif;font-size:15px;font-weight:400;fill:#88aadd;letter-spacing:1.5px}
    .bdg{fill:#1a3a6a}.bdt{font-family:sans-serif;font-size:11px;fill:#6ab0ff}
    .sep{fill:#3d90f0;opacity:.6}
  </style>
</defs>
<rect width="680" height="240" class="b0"/>
<ellipse cx="340" cy="80" rx="380" ry="160" class="b1"/>
<ellipse cx="340" cy="60" rx="280" ry="120" class="b2"/>
<ellipse cx="340" cy="50" rx="180" ry="80" class="hor"/>
<circle cx="60" cy="35" r="1.8" class="st"/><circle cx="110" cy="20" r="1.5" class="st"/>
<circle cx="160" cy="40" r="2" class="st"/><circle cx="220" cy="15" r="1.5" class="st"/>
<circle cx="270" cy="30" r="1.8" class="st"/><circle cx="590" cy="25" r="2" class="st"/>
<circle cx="630" cy="42" r="1.5" class="st"/><circle cx="650" cy="18" r="1.8" class="st"/>
<circle cx="42" cy="60" r="1.5" class="st"/>
<circle cx="340" cy="130" r="160" class="rg1"/>
<circle cx="340" cy="130" r="115" class="rg2"/>
<circle cx="340" cy="130" r="75" class="rg3"/>
<rect x="0" y="168" width="680" height="72" class="gnd2"/>
<rect x="0" y="158" width="680" height="68" class="gnd"/>
<path d="M0 162 Q170 148 340 155 Q510 162 680 150 L680 168 Q510 160 340 162 Q170 166 0 168 Z" fill="#0f3520"/>
<rect x="270" y="148" width="140" height="92" class="rd"/>
<rect x="328" y="160" width="12" height="22" rx="2" class="rdl"/>
<rect x="328" y="194" width="12" height="22" rx="2" class="rdl"/>
<ellipse cx="340" cy="148" rx="32" ry="10" fill="#08112a" opacity=".5"/>
<path d="M340 62 C320 62 303 79 303 100 C303 128 340 162 340 162 C340 162 377 128 377 100 C377 79 360 62 340 62 Z" class="pin"/>
<circle cx="340" cy="100" r="13" class="ph"/>
<ellipse cx="140" cy="108" rx="38" ry="13" class="cl"/>
<ellipse cx="162" cy="99" rx="28" ry="18" class="cl"/>
<ellipse cx="114" cy="103" rx="22" ry="14" class="cl"/>
<ellipse cx="560" cy="95" rx="30" ry="11" class="cl2"/>
<ellipse cx="578" cy="87" rx="22" ry="15" class="cl2"/>
<ellipse cx="540" cy="90" rx="18" ry="12" class="cl2"/>
<circle cx="270" cy="75" r="3" class="po"/><circle cx="295" cy="58" r="2.5" class="po"/>
<circle cx="320" cy="70" r="2" class="po"/><circle cx="248" cy="88" r="2.5" class="po"/>
<circle cx="415" cy="68" r="3" class="po"/><circle cx="400" cy="55" r="2" class="po"/>
<circle cx="430" cy="82" r="2.5" class="po"/>
<rect x="470" y="52" width="40" height="40" rx="8" class="wn"/>
<text x="490" y="80" text-anchor="middle" class="wt">!</text>
<text x="44" y="147" class="ttl">GeoWeather</text>
<rect x="44" y="157" width="4" height="30" rx="2" class="sep"/>
<text x="56" y="170" class="sub">DWD · WARNUNGEN · POLLEN · GPS</text>
<rect x="56" y="182" width="84" height="18" rx="9" class="bdg"/>
<rect x="148" y="182" width="66" height="18" rx="9" class="bdg"/>
<rect x="222" y="182" width="72" height="18" rx="9" class="bdg"/>
<text x="98" y="195" text-anchor="middle" class="bdt">Home Assistant</text>
<text x="181" y="195" text-anchor="middle" class="bdt">HACS ready</text>
<text x="258" y="195" text-anchor="middle" class="bdt">hflocki/geoweather</text>
</svg>
